<?xml version="1.0" encoding="UTF-8" standalone="no"?>
<!-- Created with Inkscape (http://www.inkscape.org/) -->

<svg
   xmlns:dc="http://purl.org/dc/elements/1.1/"
   xmlns:cc="http://creativecommons.org/ns#"
   xmlns:rdf="http://www.w3.org/1999/02/22-rdf-syntax-ns#"
   xmlns:svg="http://www.w3.org/2000/svg"
   xmlns="http://www.w3.org/2000/svg"
   xmlns:sodipodi="http://sodipodi.sourceforge.net/DTD/sodipodi-0.dtd"
   xmlns:inkscape="http://www.inkscape.org/namespaces/inkscape"
   version="1.1"
   id="svg2"
   width="468.11429"
   height="468.11429"
   viewBox="0 0 468.11429 468.11429"
   sodipodi:docname="factorio.svg"
   inkscape:version="0.92.5 (2060ec1f9f, 2020-04-08)">
  <metadata
     id="metadata8">
    <rdf:RDF>
      <cc:Work
         rdf:about="">
        <dc:format>image/svg+xml</dc:format>
        <dc:type
           rdf:resource="http://purl.org/dc/dcmitype/StillImage" />
        <dc:title></dc:title>
      </cc:Work>
    </rdf:RDF>
  </metadata>
  <defs
     id="defs6" />
  <sodipodi:namedview
     pagecolor="#ffffff"
     bordercolor="#666666"
     borderopacity="1"
     objecttolerance="10"
     gridtolerance="10"
     guidetolerance="10"
     inkscape:pageopacity="0"
     inkscape:pageshadow="2"
     inkscape:window-width="1920"
     inkscape:window-height="990"
     id="namedview4"
     showgrid="false"
     inkscape:zoom="1.6363525"
     inkscape:cx="234.05714"
     inkscape:cy="234.05714"
     inkscape:window-x="0"
     inkscape:window-y="60"
     inkscape:window-maximized="1"
     inkscape:current-layer="svg2" />
  <path
     style="fill:#aa4400;stroke-width:0.91428572"
     d="m 194.92397,466.58486 c -1.66039,-0.81829 -3.56669,-2.55749 -4.23623,-3.86489 -0.66954,-1.30741 -3.15634,-15.13139 -5.52621,-30.71997 -2.36988,-15.58857 -4.48424,-28.52353 -4.69859,-28.74434 -0.34249,-0.35283 -12.93626,-5.56999 -23.74671,-9.83743 l -3.74091,-1.47674 -22.52534,17.01274 C 106.36603,427.14416 104.12825,428.31937 98.603173,425.67921 95.024568,423.96917 67.8096,398.35835 56.367214,385.93279 43.283836,371.72525 40.946767,366.79589 44.258177,360.39233 c 0.707711,-1.36856 8.328794,-11.69079 16.935738,-22.93827 17.263955,-22.5604 16.408081,-20.41402 11.80196,-29.59724 -1.458254,-2.90732 -3.92378,-8.80252 -5.478946,-13.10042 -1.555167,-4.29791 -3.291251,-7.98227 -3.857966,-8.18746 C 63.092248,286.36375 50.104475,284.3349 34.797246,282.06038 17.258141,279.45424 6.1568194,277.39476 4.778022,276.49134 0.20815709,273.49704 0,271.60785 0,233.12682 c 0,-37.9356 0.04925793,-38.40574 4.4402687,-42.37955 1.4702312,-1.33054 7.6725513,-2.58447 28.2078893,-5.70283 14.477799,-2.1985 27.629341,-4.21998 29.225649,-4.49219 2.634486,-0.44924 3.134185,-1.10411 5.41379,-7.095 1.381276,-3.63007 3.880919,-9.46849 5.554764,-12.97431 1.673844,-3.50581 3.043354,-7.10469 3.043354,-7.99751 0,-1.86595 -8.983427,-14.25988 -22.578611,-31.15048 C 42.273365,107.62669 40.754441,105.0278 41.524894,101.17553 42.415629,96.721857 50.820032,86.605515 68.31516,68.928219 83.938671,53.142027 93.127525,45.253551 99.396865,42.245098 c 4.918865,-2.360403 8.227275,-0.520968 30.888855,17.173834 11.56571,9.030839 21.72577,16.430298 22.57792,16.443245 0.85214,0.01295 4.55499,-1.336742 8.22857,-2.999305 3.67357,-1.662565 9.23797,-3.970843 12.36533,-5.129508 3.12736,-1.158665 6.04889,-2.575528 6.49231,-3.148585 0.44341,-0.573056 1.91739,-9.522531 3.27549,-19.887722 2.78943,-21.289183 5.48821,-35.5080823 7.46508,-39.3309498 C 193.43091,0.06658857 193.96394,0 233.64499,0 c 39.66451,0 41.09806,0.17616461 43.78372,5.3804298 0.67863,1.3150493 3.16956,15.1452842 5.53541,30.7338562 2.36583,15.588572 4.47159,28.619971 4.67946,28.958665 0.20786,0.338695 2.53309,1.324966 5.16717,2.191714 2.63409,0.866749 8.40771,3.161064 12.83027,5.098478 4.42255,1.937414 8.49361,3.522572 9.0468,3.522572 0.55318,0 10.82484,-7.428649 22.8259,-16.50811 12.00106,-9.079461 23.08838,-16.950229 24.63848,-17.490598 5.92463,-2.065337 8.46958,-0.307797 29.6992,20.510226 18.41378,18.056793 29.75858,30.422562 32.24112,35.142663 1.61843,3.077144 1.24448,7.730044 -0.90497,11.260104 -1.07166,1.76 -8.39908,11.63429 -16.28315,21.94286 -7.88408,10.30857 -14.64314,19.25989 -15.02014,19.89183 -0.39238,0.65773 1.03656,4.9577 3.34214,10.05714 2.21518,4.89949 4.96757,11.48485 6.11643,14.63411 1.50603,4.12833 2.63049,5.85301 4.03015,6.18138 1.06772,0.2505 14.04306,2.29928 28.83409,4.55286 16.87027,2.57038 27.71722,4.63761 29.10494,5.54688 4.60028,3.01421 4.80255,4.85041 4.79886,43.56358 -0.004,34.23889 -0.0883,36.0543 -1.82231,38.89831 -1.00039,1.64079 -3.15886,3.58439 -4.79659,4.31913 -1.63772,0.73474 -15.2827,3.17606 -30.32217,5.42516 -17.58559,2.62987 -27.61527,4.51454 -28.10322,5.28088 -0.4173,0.65538 -1.85358,4.0716 -3.19173,7.5916 -1.33815,3.52 -3.60599,8.75398 -5.03964,11.63106 -1.43365,2.8771 -2.60663,6.01355 -2.60663,6.96989 0,1.70987 10.51021,16.07071 25.46924,34.80041 4.17998,5.23361 8.00648,10.58218 8.50332,11.88571 2.17376,5.70319 -1.17522,10.83076 -20.36697,31.18358 -14.50296,15.38037 -28.13402,27.61761 -35.12055,31.52935 -4.81806,2.69762 -4.96378,2.71957 -8.83481,1.33097 -2.31275,-0.82961 -12.46681,-8.0879 -24.62171,-17.6 -11.37717,-8.90346 -21.33152,-16.18811 -22.12078,-16.18811 -0.78925,0 -4.44066,1.36028 -8.11424,3.02284 -3.67357,1.66256 -9.23797,3.97084 -12.36533,5.1295 -3.12736,1.15867 -6.03669,2.57554 -6.46519,3.14859 -0.42849,0.57306 -1.90033,9.51208 -3.27074,19.86449 -2.82618,21.34959 -5.53229,35.55494 -7.49695,39.35418 -2.74315,5.30466 -3.25447,5.36808 -43.09275,5.34529 -31.73571,-0.0182 -36.77425,-0.21104 -39.40715,-1.50861 z m 61.05101,-157.51999 c 24.78265,-7.19706 45.99548,-28.54528 53.234,-53.57375 1.78833,-6.18342 2.10042,-9.36824 2.10042,-21.43398 0,-12.06573 -0.31209,-15.25055 -2.10042,-21.43397 -7.297,-25.23067 -28.48719,-46.42086 -53.71786,-53.71786 -6.18342,-1.78833 -9.36824,-2.10042 -21.43398,-2.10042 -12.06573,0 -15.25055,0.31209 -21.43397,2.10042 -25.23067,7.297 -46.42086,28.48719 -53.71786,53.71786 -1.78833,6.18342 -2.10042,9.36824 -2.10042,21.43397 0,12.06574 0.31209,15.25056 2.10042,21.43398 7.25724,25.0932 29.04511,46.95448 53.26072,53.44015 10.08316,2.70057 10.32048,2.72421 24.17683,2.40894 9.76449,-0.22217 14.42023,-0.76177 19.63212,-2.27534 z"
     id="path12"
     inkscape:connector-curvature="0" />
</svg>
