<?xml version="1.0" encoding="UTF-8" standalone="no"?>
<svg
   xmlns:dc="http://purl.org/dc/elements/1.1/"
   xmlns:cc="http://creativecommons.org/ns#"
   xmlns:rdf="http://www.w3.org/1999/02/22-rdf-syntax-ns#"
   xmlns:svg="http://www.w3.org/2000/svg"
   xmlns="http://www.w3.org/2000/svg"
   xmlns:sodipodi="http://sodipodi.sourceforge.net/DTD/sodipodi-0.dtd"
   xmlns:inkscape="http://www.inkscape.org/namespaces/inkscape"
   role="img"
   viewBox="0 0 24 24"
   fill="#E60000"
   version="1.1"
   id="svg6"
   sodipodi:docname="vodafone.svg"
   inkscape:version="0.92.5 (2060ec1f9f, 2020-04-08)">
  <metadata
     id="metadata12">
    <rdf:RDF>
      <cc:Work
         rdf:about="">
        <dc:format>image/svg+xml</dc:format>
        <dc:type
           rdf:resource="http://purl.org/dc/dcmitype/StillImage" />
        <dc:title>Vodafone</dc:title>
      </cc:Work>
    </rdf:RDF>
  </metadata>
  <defs
     id="defs10" />
  <sodipodi:namedview
     pagecolor="#ffffff"
     bordercolor="#666666"
     borderopacity="1"
     objecttolerance="10"
     gridtolerance="10"
     guidetolerance="10"
     inkscape:pageopacity="0"
     inkscape:pageshadow="2"
     inkscape:window-width="1920"
     inkscape:window-height="989"
     id="namedview8"
     showgrid="false"
     inkscape:zoom="27.812867"
     inkscape:cx="13.774081"
     inkscape:cy="10.289148"
     inkscape:window-x="0"
     inkscape:window-y="60"
     inkscape:window-maximized="1"
     inkscape:current-layer="svg6" />
  <title
     id="title2">Vodafone</title>
  <circle
     style="fill:#ffffff;fill-opacity:1;stroke-width:4.60449409"
     id="path14"
     cx="12"
     cy="12"
     r="12" />
  <path
     d="M12 0A12 12 0 0 0 0 12A12 12 0 0 0 12 24A12 12 0 0 0 24 12A12 12 0 0 0 12 0M16.25 1.12C16.57 1.12 16.9 1.15 17.11 1.22C14.94 1.67 13.21 3.69 13.22 6C13.22 6.05 13.22 6.11 13.23 6.17C16.87 7.06 18.5 9.25 18.5 12.28C18.54 15.31 16.14 18.64 12.09 18.65C8.82 18.66 5.41 15.86 5.39 11.37C5.38 8.4 7 5.54 9.04 3.85C11.04 2.19 13.77 1.13 16.25 1.12Z"
     id="path4" />
</svg>
