<?xml version="1.0" encoding="UTF-8" standalone="no"?>
<svg
   role="img"
   viewBox="0 0 24 24"
   fill="#000000"
   version="1.1"
   id="svg88"
   sodipodi:docname="apple.svg"
   inkscape:version="1.2.2 (b0a84865, 2022-12-01)"
   xmlns:inkscape="http://www.inkscape.org/namespaces/inkscape"
   xmlns:sodipodi="http://sodipodi.sourceforge.net/DTD/sodipodi-0.dtd"
   xmlns="http://www.w3.org/2000/svg"
   xmlns:svg="http://www.w3.org/2000/svg">
  <defs
     id="defs92" />
  <sodipodi:namedview
     id="namedview90"
     pagecolor="#ffffff"
     bordercolor="#000000"
     borderopacity="0.25"
     inkscape:showpageshadow="2"
     inkscape:pageopacity="0.0"
     inkscape:pagecheckerboard="0"
     inkscape:deskcolor="#d1d1d1"
     showgrid="false"
     inkscape:zoom="28.666667"
     inkscape:cx="12"
     inkscape:cy="12"
     inkscape:window-width="1512"
     inkscape:window-height="945"
     inkscape:window-x="0"
     inkscape:window-y="37"
     inkscape:window-maximized="0"
     inkscape:current-layer="svg88" />
  <title
     id="title84">Apple</title>
  <path
     d="m 12.207113,7.1088912 c -0.886005,0 -2.2570695,-1.007504 -3.7010346,-0.971989 -1.9065938,0.025234 -3.6543049,1.1056375 -4.6365747,2.816899 -1.9785585,3.4346728 -0.5102942,8.5077068 1.4196648,11.2993718 0.9467548,1.358916 2.0636076,2.88793 3.5440213,2.840265 1.4205992,-0.06075 1.9533242,-0.922455 3.6776702,-0.922455 1.711262,0 2.196321,0.922455 3.701035,0.886005 1.529948,-0.0243 2.501003,-1.383215 3.435608,-2.755215 1.080403,-1.577613 1.529013,-3.107562 1.553313,-3.191676 -0.03645,-0.01215 -2.973912,-1.141152 -3.009427,-4.539376 -0.0243,-2.8411974 2.317819,-4.2001132 2.427168,-4.2608625 -1.33555,-1.9533242 -3.386073,-2.1720217 -4.102915,-2.2206211 -1.86921,-0.1457985 -3.434673,1.0187193 -4.308529,1.0187193 z"
     style="stroke-width:0.934605"
     id="path419" />
  <path
     d="m 15.214304,4.7920118 c 0.815281,-0.9787236 1.353966,-2.3471958 1.204062,-3.7040627 -1.167311,0.05029 -2.574468,0.7785301 -3.415861,1.7582208 -0.754353,0.866538 -1.40619,2.2611225 -1.231141,3.591877 1.294004,0.1005799 2.625725,-0.6653772 3.441973,-1.645068"
     style="fill:#000000;stroke-width:0.967119"
     id="path368" />
  <path
     d="m 12.136092,7.4301444 c -0.848791,0 -2.1622687,-0.9651868 -3.5455838,-0.9311635 -1.826513,0.024174 -3.5008167,1.0591985 -4.4418291,2.6985835 -1.895455,3.2904096 -0.4888608,8.1503666 1.360036,10.8247756 0.9069891,1.301839 1.9769318,2.766631 3.3951655,2.720968 1.3609314,-0.0582 1.8712804,-0.88371 3.5232004,-0.88371 1.639385,0 2.104071,0.88371 3.545584,0.848791 1.465687,-0.02328 2.395956,-1.325117 3.291305,-2.63949 1.035024,-1.51135 1.464792,-2.977038 1.488071,-3.057619 -0.03492,-0.01164 -2.849002,-1.093222 -2.883025,-4.348713 -0.02328,-2.7218624 2.220466,-4.0237007 2.325222,-4.0818984 -1.279454,-1.8712806 -3.243851,-2.0807923 -3.930584,-2.1273505 -1.790699,-0.1396746 -3.29041,0.975931 -4.127562,0.975931 z m 3.024491,-2.7451417 c 0.75478,-0.9060937 1.25349,-2.1730133 1.11471,-3.4291887 -1.080686,0.046558 -2.38342,0.7207563 -3.162374,1.6277454 -0.698373,0.8022332 -1.301838,2.0933273 -1.13978,3.3253282 1.197978,0.093116 2.430874,-0.6160004 3.186549,-1.5229895"
     id="path86"
     style="stroke-width:0.89535;fill:#ffffff"
     sodipodi:nodetypes="cccccsccccccccccccc" />
</svg>
