<?xml version="1.0" encoding="UTF-8" standalone="no"?>
<svg
   xmlns:dc="http://purl.org/dc/elements/1.1/"
   xmlns:cc="http://creativecommons.org/ns#"
   xmlns:rdf="http://www.w3.org/1999/02/22-rdf-syntax-ns#"
   xmlns:svg="http://www.w3.org/2000/svg"
   xmlns="http://www.w3.org/2000/svg"
   xmlns:sodipodi="http://sodipodi.sourceforge.net/DTD/sodipodi-0.dtd"
   xmlns:inkscape="http://www.inkscape.org/namespaces/inkscape"
   role="img"
   viewBox="0 0 24 24"
   fill="#D9272E"
   version="1.1"
   id="svg6"
   sodipodi:docname="mega.svg"
   inkscape:version="0.92.5 (2060ec1f9f, 2020-04-08)">
  <metadata
     id="metadata12">
    <rdf:RDF>
      <cc:Work
         rdf:about="">
        <dc:format>image/svg+xml</dc:format>
        <dc:type
           rdf:resource="http://purl.org/dc/dcmitype/StillImage" />
      </cc:Work>
    </rdf:RDF>
  </metadata>
  <defs
     id="defs10" />
  <sodipodi:namedview
     pagecolor="#ffffff"
     bordercolor="#666666"
     borderopacity="1"
     objecttolerance="10"
     gridtolerance="10"
     guidetolerance="10"
     inkscape:pageopacity="0"
     inkscape:pageshadow="2"
     inkscape:window-width="1920"
     inkscape:window-height="990"
     id="namedview8"
     showgrid="false"
     inkscape:zoom="9.8333333"
     inkscape:cx="12"
     inkscape:cy="12"
     inkscape:window-x="0"
     inkscape:window-y="60"
     inkscape:window-maximized="1"
     inkscape:current-layer="svg6" />
  <title
     id="title2">MEGA</title>
  <path
     d="M12 0C5.372 0 0 5.372 0 12s5.372 12 12 12 12-5.372 12-12S18.628 0 12 0zm6.23 16.244a.371.371 0 0 1-.373.372H16.29a.371.371 0 0 1-.372-.372v-4.828c0-.04-.046-.06-.08-.033l-3.32 3.32a.742.742 0 0 1-1.043 0l-3.32-3.32c-.027-.027-.08-.007-.08.033v4.828a.371.371 0 0 1-.372.372H6.136a.371.371 0 0 1-.372-.372V7.757c0-.206.166-.372.372-.372h1.076a.75.75 0 0 1 .525.22l4.13 4.13a.18.18 0 0 0 .26 0l4.13-4.13c.14-.14.325-.22.525-.22h1.075c.206 0 .372.166.372.372z"
     id="path4" />
  <path
     style="fill:#ffffff;fill-opacity:1;stroke:none;stroke-width:0.10169491;stroke-opacity:1"
     d="M 5.9300055,16.457758 C 5.8471367,16.357907 5.8222156,15.079636 5.8412823,11.90691 L 5.8677963,7.4949153 6.6813556,7.4667273 7.494915,7.4385393 9.6804686,9.6277442 c 1.2020544,1.2040628 2.2303784,2.1892048 2.2851644,2.1892048 0.05478,0 1.087225,-0.983898 2.29431,-2.1864405 l 2.1947,-2.1864407 h 0.762509 c 0.457469,0 0.811329,0.048819 0.884543,0.1220339 0.16024,0.1602402 0.176132,8.5360163 0.01676,8.8338043 -0.09179,0.171507 -0.219451,0.196704 -0.99661,0.196704 -0.557669,0 -0.93702,-0.04568 -1.013371,-0.122034 -0.08835,-0.08835 -0.122034,-0.818079 -0.122034,-2.644068 0,-1.387118 -0.03271,-2.522033 -0.07269,-2.522033 -0.03998,0 -0.878035,0.800847 -1.862345,1.779661 -1.470386,1.462177 -1.840867,1.779661 -2.076739,1.779661 -0.235703,0 -0.612238,-0.321987 -2.1037573,-1.798987 L 8.0542373,11.269824 v 2.541359 c 0,1.84102 -0.03363,2.574989 -0.1220339,2.663393 -0.1784695,0.17847 -1.8517885,0.164414 -2.0021979,-0.01682 z"
     id="path14"
     inkscape:connector-curvature="0" />
</svg>
