<?xml version="1.0" encoding="UTF-8" standalone="no"?>
<svg
   xmlns:dc="http://purl.org/dc/elements/1.1/"
   xmlns:cc="http://creativecommons.org/ns#"
   xmlns:rdf="http://www.w3.org/1999/02/22-rdf-syntax-ns#"
   xmlns:svg="http://www.w3.org/2000/svg"
   xmlns="http://www.w3.org/2000/svg"
   xmlns:sodipodi="http://sodipodi.sourceforge.net/DTD/sodipodi-0.dtd"
   xmlns:inkscape="http://www.inkscape.org/namespaces/inkscape"
   role="img"
   viewBox="0 0 24 24"
   fill="#E95420"
   version="1.1"
   id="svg6"
   sodipodi:docname="ubuntu.svg"
   inkscape:version="0.92.5 (2060ec1f9f, 2020-04-08)">
  <metadata
     id="metadata12">
    <rdf:RDF>
      <cc:Work
         rdf:about="">
        <dc:format>image/svg+xml</dc:format>
        <dc:type
           rdf:resource="http://purl.org/dc/dcmitype/StillImage" />
      </cc:Work>
    </rdf:RDF>
  </metadata>
  <defs
     id="defs10" />
  <sodipodi:namedview
     pagecolor="#ffffff"
     bordercolor="#666666"
     borderopacity="1"
     objecttolerance="10"
     gridtolerance="10"
     guidetolerance="10"
     inkscape:pageopacity="0"
     inkscape:pageshadow="2"
     inkscape:window-width="1920"
     inkscape:window-height="990"
     id="namedview8"
     showgrid="false"
     inkscape:zoom="9.8333333"
     inkscape:cx="12"
     inkscape:cy="12"
     inkscape:window-x="0"
     inkscape:window-y="60"
     inkscape:window-maximized="1"
     inkscape:current-layer="svg6" />
  <title
     id="title2">Ubuntu</title>
  <path
     d="M12 0c6.623 0 12 5.377 12 12s-5.377 12-12 12S0 18.623 0 12 5.377 0 12 0zm3.279 17.68c-.766.441-1.029 1.422-.586 2.189.441.765 1.422 1.028 2.188.584.766-.441 1.029-1.422.585-2.189-.441-.765-1.421-1.028-2.187-.584zm-3.279-1c-.705 0-1.373-.157-1.971-.435L8.916 18.24c.93.459 1.978.721 3.084.721.646 0 1.268-.091 1.86-.256.104-.643.485-1.234 1.095-1.587.609-.351 1.313-.386 1.92-.156 1.186-1.163 1.957-2.749 2.07-4.515l-2.285-.033c-.21 2.391-2.215 4.266-4.66 4.266zM7.32 12c0-1.583.787-2.981 1.99-3.83L8.14 6.209c-1.404.93-2.445 2.369-2.881 4.035.506.404.83 1.034.83 1.74 0 .704-.324 1.319-.83 1.739.436 1.665 1.477 3.104 2.881 4.034l1.17-1.965C8.107 14.97 7.32 13.574 7.32 12zm-3.48-1.602c-.885 0-1.602.717-1.602 1.602s.717 1.602 1.602 1.602S5.441 12.885 5.441 12s-.716-1.602-1.601-1.602zM12 7.32c2.445 0 4.45 1.875 4.66 4.265l2.285-.034c-.113-1.765-.885-3.35-2.07-4.516-.609.232-1.313.194-1.92-.154-.609-.352-.99-.945-1.095-1.591-.594-.16-1.214-.25-1.86-.25-1.11 0-2.155.26-3.084.72l1.113 1.995c.6-.279 1.268-.435 1.971-.435zm3.279-1.001c.765.442 1.746.181 2.189-.585.441-.765.181-1.746-.588-2.19-.765-.44-1.746-.179-2.189.589-.441.764-.18 1.744.588 2.186z"
     id="path4" />
  <path
     style="fill:#ffffff;fill-opacity:1;stroke:none;stroke-width:0.10169491;stroke-opacity:1"
     d="M 16.60453,10.996021 C 16.41884,10.130177 15.993402,9.3687685 15.31496,8.6880701 14.014894,7.3836816 12.139888,6.9521095 10.403194,7.5575243 10.216042,7.6227659 10.037879,7.63417 9.9923733,7.5838206 9.9481792,7.5349226 9.6996117,7.1006669 9.440001,6.618808 L 8.9679815,5.7427008 9.8077196,5.4608337 C 10.801369,5.1273044 12.345659,5.0104185 13.257524,5.199721 c 0.496119,0.102994 0.582926,0.1563279 0.640639,0.3936064 0.117102,0.4814468 0.543594,1.0172944 1.043628,1.3112208 0.417996,0.2457039 0.590975,0.2846664 1.246838,0.280843 0.717503,-0.00418 0.776273,0.012694 1.01695,0.2920254 0.826184,0.958879 1.435368,2.2624163 1.612155,3.4497024 l 0.08707,0.584745 H 17.809982 16.71516 Z"
     id="path14"
     inkscape:connector-curvature="0" />
  <path
     style="fill:#ffffff;fill-opacity:1;stroke:none;stroke-width:0.10169491;stroke-opacity:1"
     d="M 7.216278,16.89143 C 6.339368,16.020457 5.7854079,15.175501 5.4702007,14.228138 5.313535,13.757275 5.3153276,13.733522 5.5239242,13.516273 6.2945613,12.713672 6.3081743,11.273274 5.552578,10.484404 L 5.2989962,10.219655 5.5576601,9.5324487 C 5.6999252,9.1544851 6.024811,8.5316328 6.2796285,8.1483326 6.7536158,7.4353539 7.9093073,6.2940629 8.0947131,6.3558648 8.1999139,6.3909318 9.1601515,7.9369665 9.1683654,8.0845036 9.1708492,8.1291163 8.9482208,8.390278 8.6736357,8.6648631 8.0480813,9.2904175 7.5008003,10.36921 7.3472863,11.279345 7.105938,12.710219 7.6025515,14.22617 8.6594875,15.284941 l 0.5686997,0.569687 -0.3018355,0.49811 c -0.1660095,0.27396 -0.4251973,0.699423 -0.5759728,0.945471 l -0.2741373,0.447363 z"
     id="path16"
     inkscape:connector-curvature="0" />
  <path
     style="fill:#ffffff;fill-opacity:1;stroke:none;stroke-width:0.10169491;stroke-opacity:1"
     d="m 3.1130139,13.353463 c -0.7380471,-0.450057 -0.994561,-1.14275 -0.7044669,-1.902351 0.4375948,-1.145825 1.994625,-1.330641 2.7139441,-0.322138 0.3173547,0.444939 0.3291037,1.260392 0.02409,1.672043 -0.5296734,0.714857 -1.385818,0.94744 -2.0335672,0.552446 z"
     id="path18"
     inkscape:connector-curvature="0" />
  <path
     style="fill:#ffffff;fill-opacity:1;stroke:none;stroke-width:0.10169491;stroke-opacity:1"
     d="m 15.619878,20.55422 c -0.359875,-0.104129 -0.834818,-0.540059 -0.967426,-0.887959 -0.165896,-0.43523 -0.102966,-1.087994 0.139073,-1.442584 0.669882,-0.981382 2.162021,-0.902457 2.656954,0.140537 0.579949,1.22215 -0.539607,2.562975 -1.828601,2.190006 z"
     id="path20"
     inkscape:connector-curvature="0" />
  <path
     style="fill:#ffffff;fill-opacity:1;stroke:none;stroke-width:0.10169491;stroke-opacity:1"
     d="M 10.749153,18.791554 C 9.951893,18.635766 9.0519076,18.31816 9.0478402,18.191159 9.0463708,18.14528 9.2683955,17.69917 9.5412284,17.199803 9.908828,16.526984 10.076791,16.30869 10.189831,16.35684 c 0.460856,0.196303 1.2439,0.341465 1.841958,0.341465 2.225682,0 4.20053,-1.666607 4.619179,-3.898203 l 0.06997,-0.372983 0.573428,8.83e-4 c 0.315385,4.86e-4 0.805899,0.02882 1.09003,0.06297 l 0.516603,0.06208 -0.08598,0.548323 c -0.176117,1.123086 -0.790375,2.476075 -1.494467,3.291774 L 16.925605,16.8507 16.26946,16.81696 c -1.092677,-0.05619 -1.885954,0.427519 -2.307266,1.406884 -0.17158,0.398851 -0.264652,0.493634 -0.540658,0.550604 -0.697954,0.144065 -1.98066,0.152279 -2.672381,0.01711 z"
     id="path22"
     inkscape:connector-curvature="0" />
  <path
     style="fill:#ffffff;fill-opacity:1;stroke:none;stroke-width:0.10169491;stroke-opacity:1"
     d="M 15.627961,6.4209672 C 15.458764,6.3717406 15.164263,6.1704446 14.973515,5.973643 14.677165,5.6678871 14.620736,5.5305727 14.585707,5.0299447 14.551476,4.5407443 14.583954,4.38704 14.782525,4.0984689 c 0.849379,-1.2343459 2.665401,-0.7830815 2.807684,0.6976829 0.07475,0.7778952 -0.372043,1.4096574 -1.146141,1.6206521 -0.223729,0.060982 -0.429661,0.1070033 -0.457627,0.1022708 -0.02797,-0.00473 -0.189282,-0.048881 -0.35848,-0.098108 z"
     id="path24"
     inkscape:connector-curvature="0" />
</svg>
